HIERARCHY
ROOT Hips
{
	OFFSET 0.000000 0.000000 0.000000
	CHANNELS 6 Xposition Yposition Zposition Zrotation Yrotation Xrotation 
	JOINT LowerBack
	{
		OFFSET 0.000000 0.000000 0.000000
		CHANNELS 3 Zrotation Yrotation Xrotation
		JOINT Spine
		{
			OFFSET 0.028270 2.035590 -0.193380
			CHANNELS 3 Zrotation Yrotation Xrotation
			JOINT Spine1
			{
				OFFSET 0.056720 2.048850 -0.042750
				CHANNELS 3 Zrotation Yrotation Xrotation
				JOINT Neck
				{
					OFFSET 0.000000 0.000000 0.000000
					CHANNELS 3 Zrotation Yrotation Xrotation
					JOINT Neck1
					{
						OFFSET -0.054170 1.746240 0.172020
						CHANNELS 3 Zrotation Yrotation Xrotation
						JOINT Head
						{
							OFFSET 0.104070 1.761360 -0.123970
							CHANNELS 3 Zrotation Yrotation Xrotation
							End Site
							{
								OFFSET 0.000000 0.000000 0.000000
							}
						}
					}
				}
				JOINT LeftShoulder
				{
					OFFSET 0.000000 0.000000 0.000000
					CHANNELS 3 Zrotation Yrotation Xrotation
					JOINT LeftArm
					{
						OFFSET 3.362410 1.200890 -0.311210
						CHANNELS 3 Zrotation Yrotation Xrotation
						JOINT LeftForeArm
						{
							OFFSET 4.983000 -0.000000 -0.000000
							CHANNELS 3 Zrotation Yrotation Xrotation
							JOINT LeftHand
							{
								OFFSET 3.483560 -0.000000 -0.000000
								CHANNELS 3 Zrotation Yrotation Xrotation
								JOINT LeftFingerBase
								{
									OFFSET 0.000000 0.000000 0.000000
									CHANNELS 3 Zrotation Yrotation Xrotation
									JOINT LeftHandIndex1
									{
										OFFSET 0.715260 -0.000000 -0.000000
										CHANNELS 3 Zrotation Yrotation Xrotation
										End Site
										{
											OFFSET 0.000000 0.000000 0.000000
										}
									}
								}
								JOINT LThumb
								{
									OFFSET 0.000000 0.000000 0.000000
									CHANNELS 3 Zrotation Yrotation Xrotation
									End Site
									{
										OFFSET 0.000000 0.000000 0.000000
									}
								}
							}
						}
					}
				}
				JOINT RightShoulder
				{
					OFFSET 0.000000 0.000000 0.000000
					CHANNELS 3 Zrotation Yrotation Xrotation
					JOINT RightArm
					{
						OFFSET -3.136600 1.374050 -0.404650
						CHANNELS 3 Zrotation Yrotation Xrotation
						JOINT RightForeArm
						{
							OFFSET -5.241900 -0.000000 -0.000000
							CHANNELS 3 Zrotation Yrotation Xrotation
							JOINT RightHand
							{
								OFFSET -3.444170 -0.000000 -0.000000
								CHANNELS 3 Zrotation Yrotation Xrotation
								JOINT RightFingerBase
								{
									OFFSET 0.000000 0.000000 0.000000
									CHANNELS 3 Zrotation Yrotation Xrotation
									JOINT RightHandIndex1
									{
										OFFSET -0.622530 -0.000000 -0.000000
										CHANNELS 3 Zrotation Yrotation Xrotation
										End Site
										{
											OFFSET 0.000000 0.000000 0.000000
										}
									}
								}
								JOINT RThumb
								{
									OFFSET 0.000000 0.000000 0.000000
									CHANNELS 3 Zrotation Yrotation Xrotation
									End Site
									{
										OFFSET 0.000000 0.000000 0.000000
									}
								}
							}
						}
					}
				}
			}
		}
	}
}
}
MOTION
Frames: 11
Frame Time: 0.008333
10.391106 17.521406 0.711412 -18.133667 74.811352 -7.881933 2.337863 1.548050 -7.179875 -0.732004 0.933291 -4.348772 -7.584682 0.836908 0.367573 12.231604 -5.001125 -7.416425 -4.204670 -0.339762 0.082609 0.000000 0.000000 0.000000 -3.626441 14.107231 1.267573 -68.229376 11.632861 9.811728 -2.984876 -25.617357 0.001233 3.793154 2.707362 0.093378 -0.065414 -0.060044 -0.000000 0.000000 0.000000 0.000000 0.000000 0.000000 0.000000 20.915888 1.766075 0.577686 64.609736 14.737689 21.228646 2.372697 41.453989 0.010127 1.145696 4.916755 0.049596 0.054071 -0.166202 0.000000 0.000000 0.000000 0.000000 0.000000 0.000000 0.000000 
10.544483 17.517591 0.721572 -18.031433 74.628093 -7.822323 2.407567 1.798599 -7.052946 -0.734784 1.184792 -4.343222 -7.576900 1.090187 0.328999 12.067980 -4.485681 -7.400588 -4.183185 -0.337783 0.083525 0.000000 0.000000 0.000000 -3.799902 14.892551 1.288324 -67.627220 12.333849 10.390191 -2.994918 -25.906194 0.001233 3.594333 2.820320 0.092467 -0.066434 -0.066587 -0.000000 0.000000 0.000000 0.000000 0.000000 0.000000 0.000000 20.577810 2.537437 0.571422 64.640667 15.298672 21.560216 2.351193 41.768715 0.010396 1.218553 5.028073 0.054108 0.051751 -0.172482 0.000000 0.000000 0.000000 0.000000 0.000000 0.000000 0.000000 
10.699142 17.512250 0.730576 -18.015652 74.491978 -7.860022 2.494065 2.037235 -6.917464 -0.732099 1.423360 -4.335092 -7.564713 1.330822 0.289669 11.890405 -4.007207 -7.386928 -4.157969 -0.335520 0.084290 0.000000 0.000000 0.000000 -3.964468 15.636508 1.305542 -67.031563 13.051569 10.874897 -3.001996 -26.240725 0.001225 3.437036 2.934970 0.092156 -0.067430 -0.072938 -0.000000 0.000000 0.000000 0.000000 0.000000 0.000000 0.000000 20.210971 3.257140 0.559203 64.673834 15.840108 21.795696 2.330430 42.089559 0.010631 1.273108 5.140044 0.058020 0.049628 -0.178709 0.000000 0.000000 0.000000 0.000000 0.000000 0.000000 0.000000 
10.855494 17.505405 0.738640 -18.108644 74.403375 -7.997843 2.598160 2.264311 -6.793641 -0.723939 1.648179 -4.323587 -7.548035 1.558449 0.268552 11.708257 -3.595657 -7.394231 -4.128098 -0.332736 0.079774 0.000000 0.000000 0.000000 -4.100846 16.401188 1.316034 -66.455989 13.701017 11.300653 -3.007976 -26.549002 0.001219 3.325768 3.045626 0.092747 -0.068597 -0.078884 -0.000000 0.000000 0.000000 0.000000 0.000000 0.000000 0.000000 19.830651 3.895700 0.536668 64.700589 16.398592 21.984083 2.310005 42.407021 0.010806 1.296977 5.253608 0.060533 0.047917 -0.184745 0.000000 0.000000 0.000000 0.000000 0.000000 0.000000 0.000000 
11.013389 17.497257 0.746189 -18.281609 74.364490 -8.209418 2.709186 2.479402 -6.683455 -0.713002 1.859652 -4.312463 -7.529644 1.772879 0.252045 11.525470 -3.238192 -7.408591 -4.096331 -0.329818 0.073868 0.000000 0.000000 0.000000 -4.208902 17.120016 1.322629 -65.906467 14.359953 11.591316 -3.013736 -26.867893 0.001227 3.253110 3.155136 0.094140 -0.069852 -0.084578 -0.000000 0.000000 0.000000 0.000000 0.000000 0.000000 0.000000 19.448180 4.464715 0.510076 64.724211 16.946978 22.104506 2.290817 42.724852 0.010949 1.307672 5.361040 0.062346 0.046428 -0.190614 0.000000 0.000000 0.000000 0.000000 0.000000 0.000000 0.000000 
11.172942 17.487991 0.753581 -18.526459 74.373910 -8.480262 2.820930 2.682280 -6.595830 -0.700939 2.057599 -4.302156 -7.510991 1.973979 0.245823 11.350512 -2.943348 -7.435314 -4.063562 -0.326790 0.065076 0.000000 0.000000 0.000000 -4.278582 17.809106 1.324955 -65.389387 15.005372 11.748214 -3.020839 -27.171602 0.001256 3.215471 3.257658 0.096235 -0.071289 -0.089961 -0.000000 0.000000 0.000000 0.000000 0.000000 0.000000 0.000000 19.079827 4.956409 0.479613 64.740530 17.496508 22.177207 2.272903 43.039331 0.011062 1.307391 5.459793 0.063560 0.045164 -0.196261 0.000000 0.000000 0.000000 0.000000 0.000000 0.000000 0.000000 
11.334089 17.477847 0.761262 -18.816939 74.429437 -8.785561 2.923630 2.872188 -6.532004 -0.690140 2.242039 -4.293755 -7.494102 2.161559 0.247210 11.190201 -2.708486 -7.471588 -4.031498 -0.323816 0.054116 0.000000 0.000000 0.000000 -4.307705 18.454218 1.323998 -64.906309 15.653737 11.751259 -3.030443 -27.464348 0.001311 3.205631 3.348455 0.098732 -0.072926 -0.095071 -0.000000 0.000000 0.000000 0.000000 0.000000 0.000000 0.000000 18.740290 5.373811 0.448160 64.748838 18.043853 22.207274 2.256636 43.348522 0.011161 1.303359 5.548355 0.064474 0.044047 -0.201700 0.000000 0.000000 0.000000 0.000000 0.000000 0.000000 0.000000 
11.496982 17.466959 0.769510 -19.150636 74.525488 -9.118761 3.014709 3.049252 -6.497910 -0.681526 2.412951 -4.287865 -7.480401 2.335613 0.259252 11.050827 -2.530071 -7.519126 -4.001051 -0.320946 0.040452 0.000000 0.000000 0.000000 -4.291396 19.072185 1.320300 -64.459467 16.285951 11.608673 -3.043802 -27.728216 0.001388 3.216214 3.420578 0.101331 -0.074839 -0.099855 -0.000000 0.000000 0.000000 0.000000 0.000000 0.000000 0.000000 18.440386 5.722297 0.415340 64.748303 18.587775 22.202449 2.241645 43.653382 0.011252 1.299995 5.625541 0.065289 0.042995 -0.206914 0.000000 0.000000 0.000000 0.000000 0.000000 0.000000 0.000000 
11.661515 17.455554 0.778642 -19.495134 74.658428 -9.455975 3.084795 3.212143 -6.486958 -0.677197 2.570221 -4.283670 -7.471128 2.495964 0.281164 10.937193 -2.402011 -7.576697 -3.973199 -0.318240 0.024267 0.000000 0.000000 0.000000 -4.229831 19.666444 1.315036 -64.046286 16.898113 11.326078 -3.061769 -27.960668 0.001483 3.239092 3.468831 0.103632 -0.077057 -0.104308 -0.000000 0.000000 0.000000 0.000000 0.000000 0.000000 0.000000 18.189267 6.009025 0.382136 64.740677 19.127031 22.166126 2.227924 43.950944 0.011346 1.301423 5.692625 0.066205 0.041935 -0.211931 0.000000 0.000000 0.000000 0.000000 0.000000 0.000000 0.000000 
11.827758 17.443751 0.788813 -19.839859 74.823004 -9.790927 3.132063 3.360466 -6.495249 -0.677690 2.713842 -4.280556 -7.467019 2.642626 0.313303 10.851787 -2.315206 -7.643310 -3.948399 -0.315721 0.005720 0.000000 0.000000 0.000000 -4.124412 20.248878 1.309266 -63.664565 17.476857 10.918124 -3.084946 -28.154165 0.001586 3.265433 3.489353 0.105235 -0.079612 -0.108394 -0.000000 0.000000 0.000000 0.000000 0.000000 0.000000 0.000000 17.990148 6.244527 0.347855 64.729272 19.655700 22.098367 2.215081 44.241321 0.011446 1.309867 5.752082 0.067421 0.040791 -0.216775 0.000000 0.000000 0.000000 0.000000 0.000000 0.000000 0.000000 
11.995505 17.431690 0.800259 -20.141669 75.017722 -10.095742 3.148084 3.492911 -6.509281 -0.684685 2.844054 -4.278597 -7.468855 2.775521 0.345643 10.793843 -2.259070 -7.709535 -3.927530 -0.313541 -0.012645 0.000000 0.000000 0.000000 -3.990217 20.784195 1.303877 -63.304302 18.070030 10.370654 -3.112961 -28.347820 0.001682 3.283617 3.486207 0.105939 -0.082425 -0.112246 -0.000000 0.000000 0.000000 0.000000 0.000000 0.000000 0.000000 17.843882 6.438762 0.316208 64.720854 20.164254 21.997676 2.203733 44.517496 0.011560 1.324148 5.809418 0.068937 0.039584 -0.221539 -0.000000 0.000000 0.000000 0.000000 0.000000 0.000000 0.000000 
